<svg xmlns="http://www.w3.org/2000/svg" xmlns:xlink="http://www.w3.org/1999/xlink" width="500" zoomAndPan="magnify" viewBox="0 0 375 374.999991" height="500" preserveAspectRatio="xMidYMid meet" version="1.0"><defs><g/><clipPath id="525a915c88"><path d="M 34.402344 12.953125 L 334.402344 12.953125 L 334.402344 362.046875 L 34.402344 362.046875 Z M 34.402344 12.953125 " clip-rule="nonzero"/></clipPath><clipPath id="284116c029"><path d="M 184.402344 12.953125 L 334.402344 100.226562 L 334.402344 274.773438 L 184.402344 362.046875 L 34.402344 274.773438 L 34.402344 100.226562 Z M 184.402344 12.953125 " clip-rule="nonzero"/></clipPath><clipPath id="425ad4fc2f"><path d="M 63.675781 85.136719 L 305 85.136719 L 305 256 L 63.675781 256 Z M 63.675781 85.136719 " clip-rule="nonzero"/></clipPath></defs><g clip-path="url(#525a915c88)"><g clip-path="url(#284116c029)"><path fill="#000000" d="M 34.402344 12.953125 L 334.402344 12.953125 L 334.402344 362.046875 L 34.402344 362.046875 Z M 34.402344 12.953125 " fill-opacity="1" fill-rule="nonzero"/></g></g><g clip-path="url(#425ad4fc2f)"><path fill="#ffffff" d="M 98.984375 85.136719 C 87.714844 85.136719 78.890625 93.964844 78.890625 105.234375 L 78.890625 215.769531 C 78.890625 219.476562 79.917969 222.867188 81.597656 225.816406 L 68.839844 225.816406 C 66.0625 225.816406 63.816406 228.0625 63.816406 230.839844 C 63.816406 244.691406 75.085938 255.960938 88.9375 255.960938 L 279.859375 255.960938 C 293.710938 255.960938 304.980469 244.691406 304.980469 230.839844 C 304.980469 228.0625 302.734375 225.816406 299.957031 225.816406 L 287.199219 225.816406 C 288.875 222.867188 289.90625 219.476562 289.90625 215.769531 L 289.90625 105.234375 C 289.90625 93.964844 281.078125 85.136719 269.808594 85.136719 Z M 98.984375 95.1875 L 269.808594 95.1875 C 275.542969 95.1875 279.859375 99.503906 279.859375 105.234375 L 279.859375 215.769531 C 279.859375 221.5 275.542969 225.816406 269.808594 225.816406 L 98.984375 225.816406 C 93.253906 225.816406 88.9375 221.5 88.9375 215.769531 L 88.9375 105.234375 C 88.9375 99.503906 93.253906 95.1875 98.984375 95.1875 Z M 191.925781 120.238281 C 191.34375 120.242188 190.78125 120.339844 190.238281 120.539062 C 189.695312 120.734375 189.199219 121.015625 188.75 121.386719 C 188.304688 121.753906 187.929688 122.1875 187.632812 122.683594 C 187.335938 123.179688 187.132812 123.714844 187.019531 124.28125 L 171.945312 194.621094 C 171.875 194.945312 171.839844 195.269531 171.835938 195.601562 C 171.828125 195.929688 171.859375 196.257812 171.917969 196.582031 C 171.976562 196.90625 172.066406 197.222656 172.191406 197.53125 C 172.3125 197.835938 172.464844 198.128906 172.644531 198.40625 C 172.820312 198.683594 173.027344 198.9375 173.257812 199.175781 C 173.488281 199.414062 173.738281 199.625 174.011719 199.8125 C 174.28125 200 174.570312 200.15625 174.871094 200.289062 C 175.175781 200.417969 175.488281 200.519531 175.8125 200.585938 C 176.132812 200.65625 176.460938 200.695312 176.789062 200.699219 C 177.121094 200.703125 177.449219 200.675781 177.773438 200.613281 C 178.097656 200.554688 178.414062 200.464844 178.71875 200.34375 C 179.027344 200.21875 179.316406 200.070312 179.59375 199.890625 C 179.871094 199.710938 180.128906 199.503906 180.367188 199.277344 C 180.601562 199.046875 180.8125 198.792969 181 198.523438 C 181.1875 198.25 181.347656 197.964844 181.476562 197.660156 C 181.609375 197.355469 181.707031 197.042969 181.777344 196.722656 L 196.851562 126.382812 C 196.933594 126.011719 196.976562 125.640625 196.976562 125.261719 C 196.976562 124.882812 196.933594 124.507812 196.847656 124.140625 C 196.765625 123.769531 196.640625 123.414062 196.472656 123.074219 C 196.308594 122.734375 196.109375 122.414062 195.871094 122.121094 C 195.636719 121.824219 195.367188 121.558594 195.070312 121.324219 C 194.773438 121.089844 194.457031 120.890625 194.113281 120.726562 C 193.773438 120.566406 193.414062 120.441406 193.046875 120.359375 C 192.675781 120.277344 192.304688 120.238281 191.925781 120.238281 Z M 149.414062 135.320312 C 148.585938 135.296875 147.796875 135.46875 147.054688 135.835938 C 146.308594 136.203125 145.691406 136.71875 145.203125 137.390625 L 127.875 160.5 L 145.203125 183.609375 C 145.402344 183.875 145.625 184.117188 145.871094 184.339844 C 146.113281 184.558594 146.378906 184.753906 146.664062 184.921875 C 146.949219 185.089844 147.246094 185.230469 147.554688 185.339844 C 147.867188 185.449219 148.1875 185.527344 148.511719 185.574219 C 148.839844 185.621094 149.167969 185.636719 149.5 185.617188 C 149.828125 185.601562 150.152344 185.550781 150.472656 185.46875 C 150.792969 185.386719 151.101562 185.277344 151.398438 185.132812 C 151.695312 184.992188 151.976562 184.820312 152.242188 184.625 C 152.507812 184.425781 152.75 184.203125 152.96875 183.957031 C 153.1875 183.710938 153.382812 183.449219 153.550781 183.164062 C 153.71875 182.878906 153.859375 182.582031 153.96875 182.269531 C 154.078125 181.960938 154.15625 181.640625 154.203125 181.3125 C 154.25 180.988281 154.265625 180.660156 154.246094 180.328125 C 154.230469 180 154.179688 179.675781 154.097656 179.355469 C 154.015625 179.035156 153.90625 178.726562 153.761719 178.429688 C 153.621094 178.132812 153.449219 177.851562 153.25 177.585938 L 140.4375 160.5 L 153.25 143.417969 C 153.535156 143.050781 153.761719 142.652344 153.9375 142.222656 C 154.109375 141.792969 154.222656 141.34375 154.269531 140.882812 C 154.320312 140.421875 154.308594 139.964844 154.230469 139.507812 C 154.152344 139.050781 154.015625 138.613281 153.816406 138.191406 C 153.617188 137.773438 153.367188 137.390625 153.0625 137.039062 C 152.753906 136.691406 152.410156 136.390625 152.019531 136.136719 C 151.632812 135.882812 151.214844 135.6875 150.773438 135.546875 C 150.332031 135.410156 149.878906 135.335938 149.414062 135.320312 Z M 219.234375 135.332031 C 218.777344 135.359375 218.332031 135.445312 217.898438 135.59375 C 217.46875 135.738281 217.0625 135.941406 216.683594 136.199219 C 216.308594 136.460938 215.972656 136.761719 215.675781 137.113281 C 215.382812 137.464844 215.140625 137.847656 214.949219 138.261719 C 214.761719 138.679688 214.628906 139.113281 214.558594 139.5625 C 214.488281 140.015625 214.476562 140.46875 214.53125 140.921875 C 214.582031 141.375 214.695312 141.816406 214.867188 142.238281 C 215.039062 142.664062 215.265625 143.054688 215.542969 143.417969 L 228.359375 160.5 L 215.542969 177.585938 C 215.347656 177.851562 215.175781 178.132812 215.03125 178.429688 C 214.890625 178.726562 214.777344 179.035156 214.695312 179.355469 C 214.613281 179.675781 214.5625 180 214.542969 180.332031 C 214.527344 180.660156 214.542969 180.988281 214.589844 181.316406 C 214.632812 181.640625 214.714844 181.960938 214.824219 182.273438 C 214.933594 182.585938 215.070312 182.882812 215.238281 183.167969 C 215.40625 183.449219 215.601562 183.714844 215.824219 183.960938 C 216.042969 184.207031 216.285156 184.429688 216.550781 184.628906 C 216.816406 184.824219 217.097656 184.996094 217.394531 185.136719 C 217.691406 185.28125 218 185.390625 218.320312 185.472656 C 218.640625 185.554688 218.964844 185.605469 219.296875 185.621094 C 219.625 185.640625 219.953125 185.625 220.28125 185.578125 C 220.609375 185.53125 220.925781 185.453125 221.238281 185.34375 C 221.550781 185.234375 221.847656 185.09375 222.132812 184.925781 C 222.414062 184.753906 222.679688 184.5625 222.925781 184.339844 C 223.171875 184.117188 223.394531 183.875 223.589844 183.609375 L 240.921875 160.5 L 223.589844 137.390625 C 223.085938 136.699219 222.449219 136.171875 221.675781 135.804688 C 220.902344 135.4375 220.089844 135.28125 219.234375 135.332031 Z M 219.234375 135.332031 " fill-opacity="1" fill-rule="nonzero"/></g><g fill="#ffffff" fill-opacity="1"><g transform="translate(116.648435, 295.103565)"><g><path d="M 2 0 L 2.519531 0 C 2.519531 -1 3.199219 -1.398438 4.359375 -1.398438 C 6.28125 -1.398438 7.597656 0.480469 11.960938 0.480469 C 18.71875 0.480469 20.839844 -2.878906 20.839844 -6.960938 C 20.839844 -15.519531 6.441406 -16.800781 6.441406 -24.636719 C 6.441406 -26.957031 7.71875 -28.679688 10.917969 -28.679688 C 15.359375 -28.679688 18.71875 -25.078125 18.71875 -19.71875 L 19.238281 -19.71875 L 19.238281 -29.15625 L 18.71875 -29.15625 C 18.71875 -27.957031 18.398438 -27.558594 17.359375 -27.558594 C 15.71875 -27.558594 14.4375 -29.597656 10.359375 -29.597656 C 6.441406 -29.597656 2.039062 -27.359375 2.039062 -22.71875 C 2.039062 -15 16.839844 -11.960938 16.839844 -5.320312 C 16.839844 -1.761719 14.277344 -0.519531 11.277344 -0.519531 C 6.359375 -0.519531 2.519531 -4 2.519531 -12 L 2 -12 Z M 2 0 "/></g></g></g><g fill="#ffffff" fill-opacity="1"><g transform="translate(139.086201, 295.103565)"><g><path d="M 0.800781 -19.71875 L 0.800781 -19.199219 C 2.679688 -19.199219 3.640625 -18.878906 3.640625 -17 L 3.640625 -4.757812 C 3.640625 -0.359375 6.320312 0.480469 9.757812 0.480469 C 13.480469 0.480469 14.960938 -1.039062 16.039062 -2.601562 L 16.039062 0 L 23.359375 0 L 23.359375 -0.519531 C 21.078125 -0.519531 20.039062 -0.878906 20.039062 -3.558594 L 20.039062 -19.71875 L 13.199219 -19.71875 L 13.199219 -19.199219 C 15.359375 -19.199219 16.039062 -18.878906 16.039062 -17.039062 L 16.039062 -3.839844 C 15.277344 -2.160156 13.800781 -0.558594 11.277344 -0.558594 C 8.320312 -0.558594 7.640625 -2.398438 7.640625 -4.839844 L 7.640625 -19.71875 Z M 0.800781 -19.71875 "/></g></g></g><g fill="#ffffff" fill-opacity="1"><g transform="translate(162.843836, 295.103565)"><g><path d="M 10.519531 0.480469 C 14.960938 0.480469 16.4375 -2 17.238281 -4.121094 L 17.480469 -4.121094 C 17.480469 -1.160156 19 0.480469 22.078125 0.480469 C 25.277344 0.480469 26.679688 -1.441406 26.679688 -3.878906 L 26.117188 -3.878906 C 26.117188 -2.480469 25.4375 -0.601562 23.636719 -0.601562 C 22.320312 -0.601562 21.480469 -1.519531 21.480469 -4.199219 L 21.519531 -30.597656 L 14.039062 -29.15625 L 14.039062 -28.636719 C 16.117188 -28.636719 17.480469 -28.117188 17.480469 -26.519531 L 17.480469 -17.359375 C 16.558594 -18.878906 14.800781 -20.199219 11.917969 -20.199219 C 6.519531 -20.199219 1.601562 -16.199219 1.601562 -9.199219 C 1.601562 -2.320312 5.640625 0.480469 10.519531 0.480469 Z M 12.480469 -19.519531 C 15.4375 -19.519531 17.480469 -17.078125 17.480469 -14.199219 C 17.480469 -14.199219 17.480469 -8.078125 17.480469 -8.078125 C 17.480469 -4.839844 15.640625 -1 11.800781 -1 C 7.839844 -1 5.601562 -4 5.601562 -10.679688 C 5.601562 -15.597656 7.960938 -19.519531 12.480469 -19.519531 Z M 12.480469 -19.519531 "/></g></g></g><g fill="#ffffff" fill-opacity="1"><g transform="translate(189.52118, 295.103565)"><g><path d="M 11.757812 0.480469 C 18.078125 0.480469 20.320312 -4.121094 20.4375 -8.757812 L 19.917969 -8.757812 C 19.917969 -6.71875 18.839844 -1.71875 13.320312 -1.71875 C 8.078125 -1.71875 5.601562 -5.757812 5.601562 -11.359375 C 5.601562 -11.71875 5.601562 -12.078125 5.640625 -12.4375 L 19.917969 -12.4375 C 19.917969 -16.679688 17.078125 -20.199219 12.238281 -20.199219 C 5.558594 -20.199219 1.601562 -15.039062 1.601562 -9.757812 C 1.601562 -3.839844 5.039062 0.480469 11.757812 0.480469 Z M 5.71875 -12.960938 C 6.238281 -16.839844 8.640625 -19.398438 11.839844 -19.398438 C 16.039062 -19.398438 16.558594 -15.878906 16.558594 -12.960938 Z M 5.71875 -12.960938 "/></g></g></g><g fill="#ffffff" fill-opacity="1"><g transform="translate(210.959053, 295.103565)"><g><path d="M 11.757812 0.480469 C 18.078125 0.480469 20.320312 -4.121094 20.4375 -8.757812 L 19.917969 -8.757812 C 19.917969 -6.71875 18.839844 -1.71875 13.320312 -1.71875 C 8.078125 -1.71875 5.601562 -5.757812 5.601562 -11.359375 C 5.601562 -11.71875 5.601562 -12.078125 5.640625 -12.4375 L 19.917969 -12.4375 C 19.917969 -16.679688 17.078125 -20.199219 12.238281 -20.199219 C 5.558594 -20.199219 1.601562 -15.039062 1.601562 -9.757812 C 1.601562 -3.839844 5.039062 0.480469 11.757812 0.480469 Z M 5.71875 -12.960938 C 6.238281 -16.839844 8.640625 -19.398438 11.839844 -19.398438 C 16.039062 -19.398438 16.558594 -15.878906 16.558594 -12.960938 Z M 5.71875 -12.960938 "/></g></g></g><g fill="#ffffff" fill-opacity="1"><g transform="translate(232.396925, 295.103565)"><g><path d="M 1.199219 -18.277344 L 1.199219 -17.800781 C 3.28125 -17.800781 4.519531 -17.039062 4.519531 -15.039062 L 4.519531 6.71875 C 4.519531 8.558594 3.199219 8.878906 1.71875 8.878906 L 1.71875 9.398438 L 11.359375 9.398438 L 11.359375 8.878906 C 9.839844 8.878906 8.519531 8.558594 8.519531 6.71875 L 8.519531 -2 L 8.679688 -2 C 9.4375 -0.398438 11.878906 0.480469 14.078125 0.480469 C 19.957031 0.480469 24.359375 -3.238281 24.359375 -9.960938 C 24.359375 -15.679688 21 -20.199219 14.757812 -20.199219 C 12.199219 -20.199219 9.597656 -18.839844 8.679688 -16.480469 L 8.519531 -16.480469 L 8.519531 -19.71875 Z M 8.519531 -13.359375 C 8.519531 -16.320312 10.640625 -19.320312 13.960938 -19.320312 C 17.398438 -19.320312 20.359375 -16.320312 20.359375 -9.960938 C 20.359375 -3.917969 17.917969 -0.601562 13.480469 -0.601562 C 10.878906 -0.601562 8.519531 -1.761719 8.519531 -5.199219 Z M 8.519531 -13.359375 "/></g></g></g><g fill="#000000" fill-opacity="1"><g transform="translate(161.886709, 318.082714)"><g><path d="M 0.949219 0 L 1.195312 0 C 1.195312 -0.476562 1.519531 -0.664062 2.070312 -0.664062 C 2.984375 -0.664062 3.609375 0.226562 5.679688 0.226562 C 8.890625 0.226562 9.898438 -1.367188 9.898438 -3.304688 C 9.898438 -7.371094 3.058594 -7.980469 3.058594 -11.703125 C 3.058594 -12.804688 3.667969 -13.621094 5.1875 -13.621094 C 7.296875 -13.621094 8.890625 -11.910156 8.890625 -9.367188 L 9.136719 -9.367188 L 9.136719 -13.847656 L 8.890625 -13.847656 C 8.890625 -13.277344 8.738281 -13.089844 8.246094 -13.089844 C 7.464844 -13.089844 6.859375 -14.058594 4.921875 -14.058594 C 3.058594 -14.058594 0.96875 -12.996094 0.96875 -10.789062 C 0.96875 -7.125 7.996094 -5.679688 7.996094 -2.527344 C 7.996094 -0.835938 6.78125 -0.246094 5.355469 -0.246094 C 3.019531 -0.246094 1.195312 -1.898438 1.195312 -5.699219 L 0.949219 -5.699219 Z M 0.949219 0 "/></g></g></g><g fill="#000000" fill-opacity="1"><g transform="translate(172.543527, 318.082714)"><g><path d="M 0.761719 -2.734375 C 0.761719 -1.027344 1.898438 0.226562 3.875 0.226562 C 4.996094 0.226562 6.324219 -0.285156 7.046875 -1.613281 L 7.125 -1.613281 C 7.125 -0.324219 7.65625 0.226562 9.234375 0.226562 C 10.941406 0.226562 11.398438 -0.777344 11.398438 -1.84375 L 11.152344 -1.84375 C 11.152344 -1.214844 10.828125 -0.265625 9.9375 -0.265625 C 9.195312 -0.265625 9.023438 -0.855469 9.023438 -1.84375 L 9.023438 -6.460938 C 9.023438 -8.300781 7.429688 -9.59375 4.84375 -9.59375 C 3.097656 -9.59375 1.101562 -8.550781 1.101562 -6.058594 L 1.347656 -6.058594 C 1.347656 -7.503906 2.449219 -8.644531 4.484375 -8.644531 C 6.476562 -8.644531 7.125 -7.503906 7.125 -6.460938 L 7.125 -5.339844 C 6.628906 -5.679688 5.925781 -5.945312 4.710938 -5.945312 C 3.417969 -5.945312 0.761719 -5.375 0.761719 -2.734375 Z M 4.75 -0.816406 C 3.363281 -0.816406 2.660156 -1.785156 2.660156 -3.324219 C 2.660156 -4.40625 3.25 -5.585938 4.710938 -5.679688 C 5.507812 -5.738281 6.515625 -5.492188 7.125 -4.996094 L 7.125 -3.25 C 7.125 -1.632812 5.984375 -0.816406 4.75 -0.816406 Z M 4.75 -0.816406 "/></g></g></g><g fill="#000000" fill-opacity="1"><g transform="translate(183.941201, 318.082714)"><g><path d="M 0.570312 -13.714844 C 1.558594 -13.714844 2.148438 -13.429688 2.148438 -12.671875 L 2.148438 -1.273438 C 2.148438 -0.398438 1.730469 -0.246094 0.796875 -0.246094 L 0.796875 0 L 5.585938 0 L 5.585938 -0.246094 C 4.730469 -0.246094 4.046875 -0.378906 4.046875 -1.273438 L 4.046875 -6.914062 C 4.046875 -8.035156 5.1875 -9.0625 6.515625 -9.0625 C 7.730469 -9.0625 8.226562 -8.492188 8.226562 -7.238281 L 8.226562 -1.273438 C 8.226562 -0.398438 7.808594 -0.246094 6.894531 -0.246094 L 6.894531 0 L 11.472656 0 L 11.472656 -0.246094 C 10.582031 -0.246094 10.125 -0.398438 10.125 -1.292969 L 10.125 -6.535156 C 10.125 -8.949219 8.472656 -9.59375 7.144531 -9.59375 C 5.492188 -9.59375 4.617188 -8.851562 4.046875 -7.960938 L 4.046875 -14.648438 L 0.570312 -13.964844 Z M 0.570312 -13.714844 "/></g></g></g><g fill="#000000" fill-opacity="1"><g transform="translate(195.604812, 318.082714)"><g><path d="M 0.378906 -9.367188 L 0.378906 -9.117188 C 1.273438 -9.117188 1.730469 -8.96875 1.730469 -8.074219 L 1.730469 -2.261719 C 1.730469 -0.171875 3 0.226562 4.636719 0.226562 C 6.402344 0.226562 7.105469 -0.492188 7.617188 -1.234375 L 7.617188 0 L 11.09375 0 L 11.09375 -0.246094 C 10.011719 -0.246094 9.519531 -0.417969 9.519531 -1.691406 L 9.519531 -9.367188 L 6.269531 -9.367188 L 6.269531 -9.117188 C 7.296875 -9.117188 7.617188 -8.96875 7.617188 -8.09375 L 7.617188 -1.824219 C 7.257812 -1.027344 6.554688 -0.265625 5.355469 -0.265625 C 3.953125 -0.265625 3.628906 -1.140625 3.628906 -2.296875 L 3.628906 -9.367188 Z M 0.378906 -9.367188 "/></g></g></g></svg>