<?xml version="1.0" encoding="UTF-8"?>
<svg version="1.1" xmlns="http://www.w3.org/2000/svg" width="70" height="70">
<path d="M0 0 C23.1 0 46.2 0 70 0 C70 23.1 70 46.2 70 70 C46.9 70 23.8 70 0 70 C0 46.9 0 23.8 0 0 Z " fill="#F5F5F5" transform="translate(0,0)"/>
<path d="M0 0 C23.1 0 46.2 0 70 0 C70 23.1 70 46.2 70 70 C46.9 70 23.8 70 0 70 C0 46.9 0 23.8 0 0 Z M29.0859375 4.9765625 C28.32410156 5.40066406 27.56226562 5.82476562 26.77734375 6.26171875 C25.98457031 6.71160156 25.19179688 7.16148437 24.375 7.625 C23.22064453 8.26501953 23.22064453 8.26501953 22.04296875 8.91796875 C20.47407992 9.79833351 18.91848087 10.70276578 17.37646484 11.62939453 C15 13 15 13 12.45556641 14.11669922 C9.68600664 15.50065302 7.98236327 16.60662565 6 19 C4.74458515 23.58711849 4.53593908 27.96869153 4.60693359 32.68505859 C4.62497011 34.87137732 4.52602268 37.03156223 4.41796875 39.21484375 C4.33809841 43.49063679 4.63029132 46.91366492 6 51 C9.87453658 54.73546666 14.13235343 56.79426932 19 59 C20.40057853 59.83041309 21.78974828 60.68103674 23.15625 61.56640625 C24.2596875 62.22511719 25.363125 62.88382813 26.5 63.5625 C27.6240625 64.24441406 28.748125 64.92632812 29.90625 65.62890625 C34.85624494 67.82265401 38.83328693 65.8627761 43.73828125 64.03515625 C50.71586486 61.06926237 57.2973488 58.13595549 62 52 C65.67143601 41.59030476 63.4050882 28.69488284 62 18 C58.35693856 15.855457 54.70903424 13.71948041 51.05639648 11.59130859 C49.81446865 10.8661071 48.57389547 10.13858055 47.3347168 9.40869141 C45.55347955 8.36006556 43.76754085 7.31989288 41.98046875 6.28125 C40.90692139 5.65283203 39.83337402 5.02441406 38.72729492 4.37695312 C34.72686783 2.35722268 32.8103707 2.89451007 29.0859375 4.9765625 Z " fill="#030303" transform="translate(0,0)"/>
<path d="M0 0 C0.79289932 -0.0033284 1.58579865 -0.0066568 2.40272522 -0.01008606 C4.08317483 -0.01515851 5.76363454 -0.01749429 7.4440918 -0.01733398 C10.02083884 -0.01951911 12.59715701 -0.03766734 15.17382812 -0.05664062 C16.80338395 -0.0595747 18.43294181 -0.0615594 20.0625 -0.0625 C21.22349464 -0.07327827 21.22349464 -0.07327827 22.40794373 -0.08427429 C27.86883372 -0.06085378 27.86883372 -0.06085378 30.09765625 2.16796875 C30.32470703 4.59814453 30.32470703 4.59814453 30.29296875 7.61328125 C30.28652344 8.68964844 30.28007813 9.76601563 30.2734375 10.875 C30.25667969 12.00292969 30.23992188 13.13085938 30.22265625 14.29296875 C30.21363281 15.42863281 30.20460937 16.56429687 30.1953125 17.734375 C30.17168723 20.54578174 30.13874638 23.35677173 30.09765625 26.16796875 C31.08765625 26.16796875 32.07765625 26.16796875 33.09765625 26.16796875 C32.52420688 29.03521561 32.23620475 30.02942025 30.09765625 32.16796875 C27.19190579 32.38025327 24.38391696 32.4719297 21.4765625 32.46875 C20.19301125 32.47517769 20.19301125 32.47517769 18.88352966 32.48173523 C17.07202032 32.48748343 15.26048789 32.48797519 13.44897461 32.48364258 C10.6745672 32.48048515 7.90122839 32.50392616 5.12695312 32.52929688 C3.36849093 32.53157004 1.61002586 32.53227328 -0.1484375 32.53125 C-0.97975693 32.54045975 -1.81107635 32.54966949 -2.66758728 32.55915833 C-8.45261744 32.51261076 -8.45261744 32.51261076 -10.645401 30.8321991 C-11.90234375 29.16796875 -11.90234375 29.16796875 -11.90234375 26.16796875 C-10.91234375 26.16796875 -9.92234375 26.16796875 -8.90234375 26.16796875 C-8.90758057 25.41588135 -8.91281738 24.66379395 -8.91821289 23.88891602 C-8.93891602 20.50277533 -8.95198252 17.11664791 -8.96484375 13.73046875 C-8.97322266 12.54646484 -8.98160156 11.36246094 -8.99023438 10.14257812 C-8.99345703 9.01787109 -8.99667969 7.89316406 -9 6.734375 C-9.00523682 5.69224854 -9.01047363 4.65012207 -9.01586914 3.57641602 C-8.77172659 -1.60308135 -4.09312144 0.00586959 0 0 Z " fill="#FBFBFB" transform="translate(23.90234375,15.83203125)"/>
<path d="M0 0 C0.79289932 -0.0033284 1.58579865 -0.0066568 2.40272522 -0.01008606 C4.08317483 -0.01515851 5.76363454 -0.01749429 7.4440918 -0.01733398 C10.02083884 -0.01951911 12.59715701 -0.03766734 15.17382812 -0.05664062 C16.80338395 -0.0595747 18.43294181 -0.0615594 20.0625 -0.0625 C21.22349464 -0.07327827 21.22349464 -0.07327827 22.40794373 -0.08427429 C27.86883372 -0.06085378 27.86883372 -0.06085378 30.09765625 2.16796875 C30.32470703 4.59814453 30.32470703 4.59814453 30.29296875 7.61328125 C30.28652344 8.68964844 30.28007813 9.76601563 30.2734375 10.875 C30.25667969 12.00292969 30.23992188 13.13085938 30.22265625 14.29296875 C30.21363281 15.42863281 30.20460937 16.56429687 30.1953125 17.734375 C30.17168723 20.54578174 30.13874638 23.35677173 30.09765625 26.16796875 C31.08765625 26.16796875 32.07765625 26.16796875 33.09765625 26.16796875 C32.52420688 29.03521561 32.23620475 30.02942025 30.09765625 32.16796875 C27.19190579 32.38025327 24.38391696 32.4719297 21.4765625 32.46875 C20.19301125 32.47517769 20.19301125 32.47517769 18.88352966 32.48173523 C17.07202032 32.48748343 15.26048789 32.48797519 13.44897461 32.48364258 C10.6745672 32.48048515 7.90122839 32.50392616 5.12695312 32.52929688 C3.36849093 32.53157004 1.61002586 32.53227328 -0.1484375 32.53125 C-0.97975693 32.54045975 -1.81107635 32.54966949 -2.66758728 32.55915833 C-8.45261744 32.51261076 -8.45261744 32.51261076 -10.645401 30.8321991 C-11.90234375 29.16796875 -11.90234375 29.16796875 -11.90234375 26.16796875 C-10.91234375 26.16796875 -9.92234375 26.16796875 -8.90234375 26.16796875 C-8.90758057 25.41588135 -8.91281738 24.66379395 -8.91821289 23.88891602 C-8.93891602 20.50277533 -8.95198252 17.11664791 -8.96484375 13.73046875 C-8.97322266 12.54646484 -8.98160156 11.36246094 -8.99023438 10.14257812 C-8.99345703 9.01787109 -8.99667969 7.89316406 -9 6.734375 C-9.00523682 5.69224854 -9.01047363 4.65012207 -9.01586914 3.57641602 C-8.77172659 -1.60308135 -4.09312144 0.00586959 0 0 Z M-6.90234375 2.16796875 C-6.90234375 10.08796875 -6.90234375 18.00796875 -6.90234375 26.16796875 C4.64765625 26.16796875 16.19765625 26.16796875 28.09765625 26.16796875 C28.09765625 18.24796875 28.09765625 10.32796875 28.09765625 2.16796875 C16.54765625 2.16796875 4.99765625 2.16796875 -6.90234375 2.16796875 Z " fill="#0F0F0F" transform="translate(23.90234375,15.83203125)"/>
<path d="M0 0 C0.66 0 1.32 0 2 0 C2.33 0.66 2.66 1.32 3 2 C6.63 2 10.26 2 14 2 C14.33 3.32 14.66 4.64 15 6 C13.02 6.99 13.02 6.99 11 8 C10.67 7.34 10.34 6.68 10 6 C6.94729537 5.84188612 6.94729537 5.84188612 4 7 C3.34 6.67 2.68 6.34 2 6 C1.01 6.99 0.02 7.98 -1 9 C-0.34 9.33 0.32 9.66 1 10 C-0.32 9.67 -1.64 9.34 -3 9 C-3.33 6.69 -3.66 4.38 -4 2 C-3.01 2.33 -2.02 2.66 -1 3 C-0.67 2.01 -0.34 1.02 0 0 Z " fill="#B6B6B6" transform="translate(33,49)"/>
<path d="M0 0 C1.21236328 0.01353516 1.21236328 0.01353516 2.44921875 0.02734375 C3.37154297 0.04474609 3.37154297 0.04474609 4.3125 0.0625 C3.3225 0.5575 3.3225 0.5575 2.3125 1.0625 C2.3125 2.7125 2.3125 4.3625 2.3125 6.0625 C1.3225 5.7325 0.3325 5.4025 -0.6875 5.0625 C-0.6875 6.0525 -0.6875 7.0425 -0.6875 8.0625 C-3.3275 7.7325 -5.9675 7.4025 -8.6875 7.0625 C-8.6875 4.0625 -8.6875 4.0625 -7.6875 1.0625 C-4.80538698 0.10179566 -2.98899956 -0.04331883 0 0 Z " fill="#F2F2F2" transform="translate(30.6875,47.9375)"/>
<path d="M0 0 C1.47599073 0.04233482 2.95182482 0.09035829 4.42749023 0.14282227 C5.20293686 0.16643326 5.97838348 0.19004425 6.77732849 0.21437073 C9.26375833 0.29118741 11.74989067 0.37513351 14.23608398 0.45922852 C15.91770986 0.51243122 17.59935042 0.56517172 19.28100586 0.61743164 C23.41205504 0.74682672 27.54285101 0.88261792 31.67358398 1.02172852 C31.67358398 1.35172852 31.67358398 1.68172852 31.67358398 2.02172852 C20.45358398 2.02172852 9.23358398 2.02172852 -2.32641602 2.02172852 C-2.32641602 9.61172852 -2.32641602 17.20172852 -2.32641602 25.02172852 C-2.65641602 25.02172852 -2.98641602 25.02172852 -3.32641602 25.02172852 C-3.52226955 21.04292624 -3.70670272 17.06367695 -3.88891602 13.08422852 C-3.94499023 11.94791992 -4.00106445 10.81161133 -4.05883789 9.64086914 C-4.10717773 8.5612793 -4.15551758 7.48168945 -4.20532227 6.36938477 C-4.25245361 5.36915283 -4.29958496 4.3689209 -4.34814453 3.33837891 C-4.31344021 -0.36172596 -3.79073886 0.02476152 0 0 Z " fill="#454545" transform="translate(19.326416015625,15.978271484375)"/>
<path d="M0 0 C0.66 0 1.32 0 2 0 C2.66 0.99 3.32 1.98 4 3 C3.67 3.99 3.34 4.98 3 6 C2.01 6.33 1.02 6.66 0 7 C-0.33 7.66 -0.66 8.32 -1 9 C-0.34 9.33 0.32 9.66 1 10 C-0.32 9.67 -1.64 9.34 -3 9 C-3.33 6.69 -3.66 4.38 -4 2 C-3.01 2.33 -2.02 2.66 -1 3 C-0.67 2.01 -0.34 1.02 0 0 Z " fill="#9F9F9F" transform="translate(33,49)"/>
<path d="M0 0 C0.66 0 1.32 0 2 0 C1.69163768 2.12560437 1.37818386 4.25047065 1.0625 6.375 C0.88847656 7.55835938 0.71445312 8.74171875 0.53515625 9.9609375 C0 13 0 13 -1 15 C-1.66 15 -2.32 15 -3 15 C-2.69163768 12.87439563 -2.37818386 10.74952935 -2.0625 8.625 C-1.88847656 7.44164062 -1.71445312 6.25828125 -1.53515625 5.0390625 C-1 2 -1 2 0 0 Z " fill="#3A3A3A" transform="translate(35,22)"/>
<path d="M0 0 C0.66 0 1.32 0 2 0 C3.625 2 3.625 2 5 4 C4 6 3 8 2 10 C1.34 10 0.68 10 0 10 C0.185625 8.906875 0.37125 7.81375 0.5625 6.6875 C1.2578068 3.06375867 1.2578068 3.06375867 0 0 Z " fill="#333333" transform="translate(40,25)"/>
<path d="M0 0 C0.66 0 1.32 0 2 0 C2.33 0.66 2.66 1.32 3 2 C3.99 2.33 4.98 2.66 6 3 C6 3.66 6 4.32 6 5 C3.36 5 0.72 5 -2 5 C-1.34 3.35 -0.68 1.7 0 0 Z " fill="#D3D3D3" transform="translate(33,55)"/>
<path d="M0 0 C0.66 0 1.32 0 2 0 C1.814375 1.11375 1.62875 2.2275 1.4375 3.375 C0.68319343 6.82568861 0.68319343 6.82568861 2 9 C0.68 8.34 -0.64 7.68 -2 7 C-2 3 -2 3 0 0 Z " fill="#2C2C2C" transform="translate(27,25)"/>
<path d="M0 0 C1.485 0.99 1.485 0.99 3 2 C3.99 1.67 4.98 1.34 6 1 C6 2.32 6 3.64 6 5 C4.02 5 2.04 5 0 5 C0 3.33333333 0 1.66666667 0 0 Z " fill="#919191" transform="translate(22,50)"/>
</svg>
