<?xml version="1.0" encoding="UTF-8"?>
<svg version="1.1" xmlns="http://www.w3.org/2000/svg" width="64" height="64">
<path d="M0 0 C21.12 0 42.24 0 64 0 C64 21.12 64 42.24 64 64 C42.88 64 21.76 64 0 64 C0 42.88 0 21.76 0 0 Z " fill="#F1F1F1" transform="translate(0,0)"/>
<path d="M0 0 C21.12 0 42.24 0 64 0 C64 21.12 64 42.24 64 64 C42.88 64 21.76 64 0 64 C0 42.88 0 21.76 0 0 Z M25.6875 5.02734375 C24.07488281 5.96803711 24.07488281 5.96803711 22.4296875 6.92773438 C21.29789063 7.59095703 20.16609375 8.25417969 19 8.9375 C17.86820313 9.59685547 16.73640625 10.25621094 15.5703125 10.93554688 C10.50866198 13.58856572 10.50866198 13.58856572 6 17 C3.86466351 33.37490823 3.86466351 33.37490823 7.08691406 49.08886719 C10.34081044 52.44794925 14.67702162 53.56055003 19 55 C21.06169186 56.42988306 23.10450596 57.88747093 25.125 59.375 C29.17351065 61.73814003 29.17351065 61.73814003 33.66796875 61.4140625 C36.39243653 60.03509262 36.39243653 60.03509262 38.9765625 58.0625 C41.54805254 56.30830524 43.15472529 55.53416524 46.0234375 54.625 C50.64837458 52.95187526 54.32989389 51.29010549 57 47 C59.46361454 37.91153965 60.60412472 23.44513119 55.8515625 14.94628906 C52.598643 11.56242576 48.35313987 10.40646998 44 9 C41.66896813 7.77492748 39.48846364 6.39634931 37.25 5 C31.55140941 1.65841808 31.39649501 1.6947827 25.6875 5.02734375 Z " fill="#020202" transform="translate(0,0)"/>
<path d="M0 0 C0.70837509 0.00718552 1.41675018 0.01437103 2.14659119 0.02177429 C3.23749306 0.02246162 3.23749306 0.02246162 4.35043335 0.02316284 C5.88788993 0.02618468 7.42534346 0.03406899 8.9627533 0.0464325 C11.32427229 0.06469731 13.68539954 0.06694214 16.04698181 0.06669617 C17.53852168 0.07161101 19.03005888 0.07743918 20.52159119 0.08427429 C21.23199051 0.08538712 21.94238983 0.08649994 22.67431641 0.08764648 C27.65163129 0.13618939 27.65163129 0.13618939 28.76768494 1.25224304 C28.85482325 2.95996662 28.87468501 4.67122953 28.86534119 6.38114929 C28.86211853 7.41562195 28.85889587 8.4500946 28.85557556 9.51591492 C28.8430072 11.14883484 28.8430072 11.14883484 28.83018494 12.81474304 C28.82567322 13.90722351 28.8211615 14.99970398 28.81651306 16.12528992 C28.8046832 18.83432799 28.78820037 21.54325903 28.76768494 24.25224304 C29.75768494 24.25224304 30.74768494 24.25224304 31.76768494 24.25224304 C31.39268494 26.18974304 31.39268494 26.18974304 30.76768494 28.25224304 C27.614342 29.82891451 24.23006253 29.41521345 20.76768494 29.42021179 C19.58045837 29.42520439 19.58045837 29.42520439 18.36924744 29.43029785 C16.69477419 29.43536345 15.02029084 29.43770629 13.34580994 29.43754578 C10.77793358 29.43973431 8.21048535 29.45789914 5.64268494 29.47685242 C4.01768641 29.47978595 2.39268584 29.48177102 0.76768494 29.48271179 C-0.00317444 29.48989731 -0.77403381 29.49708282 -1.56825256 29.50448608 C-7.00348787 29.48107024 -7.00348787 29.48107024 -9.23231506 27.25224304 C-9.23231506 25.93224304 -9.23231506 24.61224304 -9.23231506 23.25224304 C-8.57231506 23.25224304 -7.91231506 23.25224304 -7.23231506 23.25224304 C-7.24802551 22.31372498 -7.24802551 22.31372498 -7.26405334 21.35624695 C-7.30554698 18.52995294 -7.33161979 15.70372293 -7.35731506 12.87724304 C-7.37407288 11.89239929 -7.39083069 10.90755554 -7.40809631 9.89286804 C-7.41454163 8.95185242 -7.42098694 8.01083679 -7.42762756 7.04130554 C-7.4381012 6.17199402 -7.44857483 5.3026825 -7.45936584 4.4070282 C-6.96766709 -0.25935162 -3.98355916 0.01864571 0 0 Z " fill="#F0F0F0" transform="translate(20.232315063476563,14.747756958007813)"/>
<path d="M0 0 C0.70837509 0.00718552 1.41675018 0.01437103 2.14659119 0.02177429 C3.23749306 0.02246162 3.23749306 0.02246162 4.35043335 0.02316284 C5.88788993 0.02618468 7.42534346 0.03406899 8.9627533 0.0464325 C11.32427229 0.06469731 13.68539954 0.06694214 16.04698181 0.06669617 C17.53852168 0.07161101 19.03005888 0.07743918 20.52159119 0.08427429 C21.23199051 0.08538712 21.94238983 0.08649994 22.67431641 0.08764648 C27.65163129 0.13618939 27.65163129 0.13618939 28.76768494 1.25224304 C28.85482325 2.95996662 28.87468501 4.67122953 28.86534119 6.38114929 C28.86211853 7.41562195 28.85889587 8.4500946 28.85557556 9.51591492 C28.8430072 11.14883484 28.8430072 11.14883484 28.83018494 12.81474304 C28.82567322 13.90722351 28.8211615 14.99970398 28.81651306 16.12528992 C28.8046832 18.83432799 28.78820037 21.54325903 28.76768494 24.25224304 C29.75768494 24.25224304 30.74768494 24.25224304 31.76768494 24.25224304 C31.39268494 26.18974304 31.39268494 26.18974304 30.76768494 28.25224304 C27.614342 29.82891451 24.23006253 29.41521345 20.76768494 29.42021179 C19.58045837 29.42520439 19.58045837 29.42520439 18.36924744 29.43029785 C16.69477419 29.43536345 15.02029084 29.43770629 13.34580994 29.43754578 C10.77793358 29.43973431 8.21048535 29.45789914 5.64268494 29.47685242 C4.01768641 29.47978595 2.39268584 29.48177102 0.76768494 29.48271179 C-0.00317444 29.48989731 -0.77403381 29.49708282 -1.56825256 29.50448608 C-7.00348787 29.48107024 -7.00348787 29.48107024 -9.23231506 27.25224304 C-9.23231506 25.93224304 -9.23231506 24.61224304 -9.23231506 23.25224304 C-8.57231506 23.25224304 -7.91231506 23.25224304 -7.23231506 23.25224304 C-7.24802551 22.31372498 -7.24802551 22.31372498 -7.26405334 21.35624695 C-7.30554698 18.52995294 -7.33161979 15.70372293 -7.35731506 12.87724304 C-7.37407288 11.89239929 -7.39083069 10.90755554 -7.40809631 9.89286804 C-7.41454163 8.95185242 -7.42098694 8.01083679 -7.42762756 7.04130554 C-7.4381012 6.17199402 -7.44857483 5.3026825 -7.45936584 4.4070282 C-6.96766709 -0.25935162 -3.98355916 0.01864571 0 0 Z M-5.23231506 2.25224304 C-5.3313103 3.80179863 -5.3631103 5.35577977 -5.36512756 6.90849304 C-5.36641663 7.8482196 -5.36770569 8.78794617 -5.36903381 9.75614929 C-5.36516663 10.74486023 -5.36129944 11.73357117 -5.35731506 12.75224304 C-5.36118225 13.74095398 -5.36504944 14.72966492 -5.36903381 15.74833679 C-5.36774475 16.68806335 -5.36645569 17.62778992 -5.36512756 18.59599304 C-5.36399963 19.46417664 -5.3628717 20.33236023 -5.36170959 21.22685242 C-5.45646876 23.24828458 -5.45646876 23.24828458 -4.23231506 24.25224304 C-1.95283715 24.35245234 0.32975628 24.38305607 2.61143494 24.38505554 C3.29572571 24.38601227 3.98001648 24.38696899 4.68504333 24.38795471 C6.13430371 24.38863634 7.58356712 24.38678327 9.03282166 24.38261414 C11.25831422 24.37726556 13.48360495 24.38255964 15.70909119 24.38896179 C17.11403955 24.38830101 18.51898779 24.38701984 19.92393494 24.38505554 C21.21106384 24.38392761 22.49819275 24.38279968 23.82432556 24.38163757 C26.65594651 24.58910447 26.65594651 24.58910447 27.76768494 23.25224304 C27.86668017 21.70268745 27.89848018 20.14870632 27.90049744 18.59599304 C27.9017865 17.65626648 27.90307556 16.71653992 27.90440369 15.74833679 C27.89860291 14.26527039 27.89860291 14.26527039 27.89268494 12.75224304 C27.89655212 11.7635321 27.90041931 10.77482117 27.90440369 9.75614929 C27.90247009 8.34655945 27.90247009 8.34655945 27.90049744 6.90849304 C27.89880554 5.60621765 27.89880554 5.60621765 27.89707947 4.27763367 C27.99183864 2.25620151 27.99183864 2.25620151 26.76768494 1.25224304 C24.48820702 1.15203374 22.20561359 1.12143001 19.92393494 1.11943054 C19.23964417 1.11847382 18.55535339 1.11751709 17.85032654 1.11653137 C16.40106616 1.11584975 14.95180275 1.11770282 13.50254822 1.12187195 C11.27705566 1.12722052 9.05176493 1.12192644 6.82627869 1.11552429 C5.42133032 1.11618508 4.01638208 1.11746625 2.61143494 1.11943054 C1.32430603 1.12055847 0.03717712 1.1216864 -1.28895569 1.12284851 C-4.12057663 0.91538161 -4.12057663 0.91538161 -5.23231506 2.25224304 Z " fill="#141414" transform="translate(20.232315063476563,14.747756958007813)"/>
<path d="M0 0 C0.66 0 1.32 0 2 0 C1.71926927 2.14729141 1.42511501 4.29283193 1.125 6.4375 C0.88136719 8.22994141 0.88136719 8.22994141 0.6328125 10.05859375 C0.31957031 11.51458984 0.31957031 11.51458984 0 13 C-0.99 13.495 -0.99 13.495 -2 14 C-2.21192221 8.80790596 -1.5912689 4.873261 0 0 Z " fill="#464646" transform="translate(32,20)"/>
<path d="M0 0 C3.96 0 7.92 0 12 0 C11.01 0.495 11.01 0.495 10 1 C10 1.66 10 2.32 10 3 C8.68 3 7.36 3 6 3 C5.67 3.99 5.34 4.98 5 6 C4.67 4.35 4.34 2.7 4 1 C2.68 0.67 1.36 0.34 0 0 Z " fill="#FDFDFD" transform="translate(20,44)"/>
<path d="M0 0 C1.32 0 2.64 0 4 0 C6.1385485 2.1385485 6.42655063 3.13275314 7 6 C5.35 5.67 3.7 5.34 2 5 C2 4.34 2 3.68 2 3 C1.34 3 0.68 3 0 3 C0 2.01 0 1.02 0 0 Z " fill="#A4A4A4" transform="translate(20,45)"/>
<path d="M0 0 C0.66 0 1.32 0 2 0 C3.625 2.5 3.625 2.5 5 5 C2.3333581 6.33332095 0.83319697 5.67102033 -2 5 C-2 4.01 -2 3.02 -2 2 C-1.34 2 -0.68 2 0 2 C0 1.34 0 0.68 0 0 Z " fill="#9D9D9D" transform="translate(30,45)"/>
<path d="M0 0 C0.33 0.66 0.66 1.32 1 2 C0.67 2.99 0.34 3.98 0 5 C0.38932856 7.14255793 0.38932856 7.14255793 1 9 C-0.32 7.68 -1.64 6.36 -3 5 C-1.125 1.125 -1.125 1.125 0 0 Z " fill="#2C2C2C" transform="translate(25,23)"/>
<path d="M0 0 C1.32 1.32 2.64 2.64 4 4 C2.515 6.475 2.515 6.475 1 9 C0.67 8.01 0.34 7.02 0 6 C0.33 5.34 0.66 4.68 1 4 C0.60061233 1.90178785 0.60061233 1.90178785 0 0 Z " fill="#272727" transform="translate(37,23)"/>
</svg>
